<svg width="20" height="20" viewBox="0 0 20 20" fill="none" xmlns="http://www.w3.org/2000/svg">
<g clip-path="url(#clip0_1374_30214)">
<path d="M0 5.03283V7.22228H3.12667L0 5.03283ZM2.59111 17.2223H7.22222V13.9795L2.59111 17.2223ZM12.7778 13.9801V17.2223H17.4083L12.7778 13.9801ZM0 12.7778V14.9673L3.12778 12.7778H0ZM17.4094 2.77783H12.7778V6.02061L17.4094 2.77783ZM20 14.9678V12.7778H16.8717L20 14.9678ZM20 7.22228V5.03283L16.8728 7.22228H20ZM7.22222 2.77783H2.59111L7.22222 6.02061V2.77783Z" fill="#00247D"/>
<path d="M13.9664 12.7779L19.3619 16.5562C19.6254 16.2848 19.8148 15.9502 19.9119 15.5846L15.9036 12.7779H13.9664ZM7.22191 12.7779H6.03247L0.63747 16.5557C0.926914 16.8501 1.29803 17.0607 1.71414 17.1585L7.22191 13.3018V12.7779ZM12.7775 7.22235H13.9669L19.3619 3.44457C19.0675 3.14584 18.6943 2.93681 18.2858 2.8418L12.7775 6.69846V7.22235ZM6.03247 7.22235L0.63747 3.44457C0.37411 3.71623 0.184589 4.05071 0.0869141 4.41624L4.09525 7.22235H6.03247Z" fill="#CF1B2B"/>
<path d="M20 11.6667H11.6667V17.2223H12.7778V13.9801L17.4083 17.2223H17.7778C18.0729 17.2223 18.3651 17.1634 18.6372 17.049C18.9093 16.9347 19.1558 16.7671 19.3622 16.5562L13.9667 12.7778H15.9039L19.9122 15.5845C19.9639 15.3973 20 15.2034 20 15.0001V14.9678L16.8717 12.7778H20V11.6667ZM0 11.6667V12.7778H3.12778L0 14.9673V15.0001C0 15.6062 0.243889 16.1545 0.637778 16.5556L6.03278 12.7778H7.22222V13.3017L1.71444 17.1578C1.87778 17.1967 2.04667 17.2223 2.22222 17.2223H2.59111L7.22222 13.9795V17.2223H8.33333V11.6667H0ZM20 5.00005C20.0003 4.41782 19.7712 3.85892 19.3622 3.4445L13.9672 7.22228H12.7778V6.69839L18.2861 2.84172C18.1197 2.8009 17.9491 2.77946 17.7778 2.77783H17.4094L12.7778 6.02061V2.77783H11.6667V8.33339H20V7.22228H16.8728L20 5.03283V5.00005ZM7.22222 2.77783V6.02061L2.59111 2.77783H2.22222C1.92701 2.7777 1.63476 2.83662 1.36265 2.95111C1.09055 3.0656 0.844091 3.23335 0.637778 3.4445L6.03278 7.22228H4.09556L0.0872222 4.41617C0.0321001 4.606 0.00276301 4.80239 0 5.00005L0 5.03283L3.12667 7.22228H0V8.33339H8.33333V2.77783H7.22222Z" fill="#EEEEEE"/>
<path d="M11.6667 8.33339V2.77783H8.33333V8.33339H0V11.6667H8.33333V17.2223H11.6667V11.6667H20V8.33339H11.6667Z" fill="#CF1B2B"/>
</g>
<defs>
<clipPath id="clip0_1374_30214">
<rect width="20" height="20" fill="white"/>
</clipPath>
</defs>
</svg>
