<svg width="24" height="24" viewBox="0 0 24 24" fill="none" xmlns="http://www.w3.org/2000/svg">
<path d="M20.4381 20.0354C19.7786 19.3717 19.7171 18.3405 19.9061 17.4241C19.9678 17.1253 20 16.8159 20 16.5C20 14 18 12 15.5 12C13 12 11 14 11 16.5C11 19 13 21 15.5 21C15.8163 21 16.126 20.967 16.4252 20.9042C17.3299 20.7146 18.3444 20.7769 19.0032 21.4252L20.3011 22.7023C20.688 23.083 21.3095 23.0805 21.6933 22.6967C22.0784 22.3116 22.0795 21.6874 21.6956 21.3011L20.4381 20.0354ZM15.5 19C14.837 19 14.2011 18.7366 13.7322 18.2678C13.2634 17.7989 13 17.163 13 16.5C13 15.837 13.2634 15.2011 13.7322 14.7322C14.2011 14.2634 14.837 14 15.5 14C16.163 14 16.7989 14.2634 17.2678 14.7322C17.7366 15.2011 18 15.837 18 16.5C18 17.163 17.7366 17.7989 17.2678 18.2678C16.7989 18.7366 16.163 19 15.5 19ZM6.77974 20C5.79682 20 5 19.2032 5 18.2203V12.832C5 12.3725 4.62752 12 4.16804 12C3.40557 12 3.04475 11.0597 3.61149 10.5497L10.6621 4.20414C11.4227 3.51959 12.5773 3.51959 13.3379 4.20414L20.8379 10.9541C21.2466 11.3219 20.9864 12 20.4366 12C20.2727 12 20.1169 11.9319 19.9991 11.818C19.2888 11.1314 18.4308 10.6182 17.4923 10.3168C17.173 10.2143 16.8692 10.0626 16.6198 9.83855L13.3378 6.89132C12.577 6.20818 11.4235 6.20881 10.6636 6.8928L7.66207 9.59414C7.24064 9.97342 7 10.5138 7 11.0807V16.7831C7 17.4552 7.54484 18 8.21694 18H8.51987C8.90672 18 9.23892 18.2739 9.36654 18.639C9.58395 19.2612 9.16565 20 8.50664 20H6.77974Z" fill="#337589"/>
</svg>
